<svg xmlns="http://www.w3.org/2000/svg" viewBox="0 0 400 400" width="400" height="400">
  <rect width="400" height="400" rx="72" fill="#09090b"/>
  <rect x="80" y="310" width="240" height="2" rx="1" fill="#27272a"/>
  <path d="M66 1202V1490H1320V1202H869V0H517V1202Z" fill="#fafafa" transform="translate(22.5, 280) scale(0.083008, -0.083008)"/>
  <path d="M116 0V1490H666L856 910Q872 857 892.5 769.5Q913 682 934.0 582.0Q955 482 972.5 389.0Q990 296 1001 229H934Q945 295 962.5 388.0Q980 481 1000.5 581.5Q1021 682 1041.5 769.0Q1062 856 1078 910L1265 1490H1816V0H1461V642Q1461 692 1463.0 770.5Q1465 849 1467.5 941.0Q1470 1033 1472.5 1126.5Q1475 1220 1475 1301H1496Q1478 1212 1454.5 1117.0Q1431 1022 1407.5 932.0Q1384 842 1362.5 767.0Q1341 692 1326 642L1114 0H819L604 642Q589 691 567.0 766.0Q545 841 521.0 931.0Q497 1021 473.0 1116.0Q449 1211 429 1301H455Q456 1222 458.0 1129.0Q460 1036 462.5 943.0Q465 850 467.5 771.5Q470 693 470 642V0Z" fill="#52525b" transform="translate(129.3, 280) scale(0.083008, -0.083008)"/>
  <path d="M116 0V1490H469V288H1092V0Z" fill="#fafafa" transform="translate(281.3, 280) scale(0.083008, -0.083008)"/>
</svg>